<mxfile host="app.diagrams.net" modified="2022-05-18T14:47:57.338Z" agent="5.0 (Windows NT 10.0; Win64; x64) AppleWebKit/537.36 (KHTML, like Gecko) Chrome/101.0.4951.67 Safari/537.36" etag="Cwot0KHoBmV45AspV3Eo" version="18.0.7" type="github">
  <diagram id="O1YDOrkmlZ7L14kGxCei" name="Page-1">
    <mxGraphModel dx="1483" dy="736" grid="1" gridSize="10" guides="1" tooltips="1" connect="1" arrows="1" fold="1" page="1" pageScale="1" pageWidth="827" pageHeight="1169" math="0" shadow="0">
      <root>
        <mxCell id="0" />
        <mxCell id="1" parent="0" />
        <mxCell id="qPho_SbqXq2HouKDJGlT-2" value="&lt;span style=&quot;&quot;&gt;矿震数据分析及可视化系统&lt;/span&gt;" style="rounded=0;whiteSpace=wrap;html=1;" parent="1" vertex="1">
          <mxGeometry x="279" y="60" width="240" height="40" as="geometry" />
        </mxCell>
        <mxCell id="qPho_SbqXq2HouKDJGlT-3" value="" style="endArrow=none;html=1;rounded=0;" parent="1" edge="1">
          <mxGeometry width="50" height="50" relative="1" as="geometry">
            <mxPoint x="169" y="130" as="sourcePoint" />
            <mxPoint x="629" y="130" as="targetPoint" />
          </mxGeometry>
        </mxCell>
        <mxCell id="qPho_SbqXq2HouKDJGlT-5" value="数据处理模块" style="rounded=0;whiteSpace=wrap;html=1;" parent="1" vertex="1">
          <mxGeometry x="90" y="160" width="160" height="40" as="geometry" />
        </mxCell>
        <mxCell id="qPho_SbqXq2HouKDJGlT-6" value="数&lt;br&gt;据&lt;br&gt;条&lt;br&gt;件&lt;br&gt;筛&lt;br&gt;选" style="rounded=0;whiteSpace=wrap;html=1;" parent="1" vertex="1">
          <mxGeometry x="110" y="280" width="40" height="140" as="geometry" />
        </mxCell>
        <mxCell id="qPho_SbqXq2HouKDJGlT-7" value="导&lt;br&gt;入&lt;br&gt;导&lt;br&gt;出&lt;br&gt;数&lt;br&gt;据&lt;br&gt;库" style="rounded=0;whiteSpace=wrap;html=1;" parent="1" vertex="1">
          <mxGeometry x="190" y="280" width="40" height="140" as="geometry" />
        </mxCell>
        <mxCell id="qPho_SbqXq2HouKDJGlT-11" value="可视化模块" style="rounded=0;whiteSpace=wrap;html=1;" parent="1" vertex="1">
          <mxGeometry x="320" y="160" width="160" height="40" as="geometry" />
        </mxCell>
        <mxCell id="qPho_SbqXq2HouKDJGlT-12" value="聚类分析模块" style="rounded=0;whiteSpace=wrap;html=1;" parent="1" vertex="1">
          <mxGeometry x="549" y="160" width="160" height="40" as="geometry" />
        </mxCell>
        <mxCell id="qPho_SbqXq2HouKDJGlT-14" value="矿&lt;br&gt;图&lt;br&gt;可&lt;br&gt;视&lt;br&gt;化" style="rounded=0;whiteSpace=wrap;html=1;" parent="1" vertex="1">
          <mxGeometry x="279" y="280" width="40" height="140" as="geometry" />
        </mxCell>
        <mxCell id="3iapmWC0ZGxWSZRQcOK3-1" value="矿&lt;br&gt;震&lt;br&gt;标&lt;br&gt;注" style="rounded=0;whiteSpace=wrap;html=1;" parent="1" vertex="1">
          <mxGeometry x="328" y="280" width="40" height="140" as="geometry" />
        </mxCell>
        <mxCell id="3iapmWC0ZGxWSZRQcOK3-2" value="热&lt;br&gt;力&lt;br&gt;&lt;span style=&quot;color: rgba(0, 0, 0, 0); font-family: monospace; font-size: 0px; text-align: start;&quot;&gt;%3CmxGraphModel%3E%3Croot%3E%3CmxCell%20id%3D%220%22%2F%3E%3CmxCell%20id%3D%221%22%20parent%3D%220%22%2F%3E%3CmxCell%20id%3D%222%22%20value%3D%22%E7%9F%BF%26lt%3Bbr%26gt%3B%E9%9C%87%26lt%3Bbr%26gt%3B%E6%A0%87%26lt%3Bbr%26gt%3B%E6%B3%A8%22%20style%3D%22rounded%3D0%3BwhiteSpace%3Dwrap%3Bhtml%3D1%3B%22%20vertex%3D%221%22%20parent%3D%221%22%3E%3CmxGeometry%20x%3D%22360%22%20y%3D%22260%22%20width%3D%2230%22%20height%3D%22135%22%20as%3D%22geometry%22%2F%3E%3C%2FmxCell%3E%3C%2Froot%3E%3C%2FmxGraphModel%3E&lt;/span&gt;图" style="rounded=0;whiteSpace=wrap;html=1;" parent="1" vertex="1">
          <mxGeometry x="379.5" y="280" width="40" height="140" as="geometry" />
        </mxCell>
        <mxCell id="3iapmWC0ZGxWSZRQcOK3-4" value="三&lt;br&gt;维&lt;br&gt;可&lt;br&gt;视&lt;br&gt;化" style="rounded=0;whiteSpace=wrap;html=1;" parent="1" vertex="1">
          <mxGeometry x="480" y="280" width="40" height="140" as="geometry" />
        </mxCell>
        <mxCell id="3iapmWC0ZGxWSZRQcOK3-6" value="数&lt;br&gt;据&lt;br&gt;可&lt;br&gt;视&lt;br&gt;化&lt;br&gt;分&lt;br&gt;析" style="rounded=0;whiteSpace=wrap;html=1;" parent="1" vertex="1">
          <mxGeometry x="430" y="280" width="40" height="140" as="geometry" />
        </mxCell>
        <mxCell id="3iapmWC0ZGxWSZRQcOK3-8" value="决&lt;br&gt;策&lt;br&gt;图" style="rounded=0;whiteSpace=wrap;html=1;" parent="1" vertex="1">
          <mxGeometry x="549" y="280" width="40" height="140" as="geometry" />
        </mxCell>
        <mxCell id="3iapmWC0ZGxWSZRQcOK3-10" value="&lt;br&gt;能&lt;br&gt;量&lt;br&gt;变&lt;br&gt;化&lt;br&gt;曲&lt;br&gt;线" style="rounded=0;whiteSpace=wrap;html=1;" parent="1" vertex="1">
          <mxGeometry x="609" y="280" width="40" height="140" as="geometry" />
        </mxCell>
        <mxCell id="3iapmWC0ZGxWSZRQcOK3-11" value="分&lt;br&gt;布&lt;br&gt;图" style="rounded=0;whiteSpace=wrap;html=1;" parent="1" vertex="1">
          <mxGeometry x="669" y="280" width="40" height="140" as="geometry" />
        </mxCell>
        <mxCell id="3iapmWC0ZGxWSZRQcOK3-15" value="" style="endArrow=none;html=1;rounded=0;" parent="1" edge="1">
          <mxGeometry width="50" height="50" relative="1" as="geometry">
            <mxPoint x="169.5" y="160" as="sourcePoint" />
            <mxPoint x="170" y="130" as="targetPoint" />
          </mxGeometry>
        </mxCell>
        <mxCell id="3iapmWC0ZGxWSZRQcOK3-16" value="" style="endArrow=none;html=1;rounded=0;" parent="1" edge="1">
          <mxGeometry width="50" height="50" relative="1" as="geometry">
            <mxPoint x="400" y="160" as="sourcePoint" />
            <mxPoint x="400" y="120" as="targetPoint" />
          </mxGeometry>
        </mxCell>
        <mxCell id="3iapmWC0ZGxWSZRQcOK3-18" value="" style="endArrow=none;html=1;rounded=0;exitX=0.5;exitY=0;exitDx=0;exitDy=0;" parent="1" edge="1">
          <mxGeometry width="50" height="50" relative="1" as="geometry">
            <mxPoint x="628.5" y="160" as="sourcePoint" />
            <mxPoint x="629" y="130" as="targetPoint" />
          </mxGeometry>
        </mxCell>
        <mxCell id="3iapmWC0ZGxWSZRQcOK3-21" value="" style="endArrow=none;html=1;rounded=0;" parent="1" edge="1">
          <mxGeometry width="50" height="50" relative="1" as="geometry">
            <mxPoint x="130" y="240" as="sourcePoint" />
            <mxPoint x="210" y="240" as="targetPoint" />
            <Array as="points">
              <mxPoint x="170" y="240" />
            </Array>
          </mxGeometry>
        </mxCell>
        <mxCell id="3iapmWC0ZGxWSZRQcOK3-22" value="" style="endArrow=none;html=1;rounded=0;" parent="1" edge="1">
          <mxGeometry width="50" height="50" relative="1" as="geometry">
            <mxPoint x="400" y="120" as="sourcePoint" />
            <mxPoint x="400" y="100" as="targetPoint" />
          </mxGeometry>
        </mxCell>
        <mxCell id="3iapmWC0ZGxWSZRQcOK3-40" value="" style="endArrow=none;html=1;rounded=0;" parent="1" edge="1">
          <mxGeometry width="50" height="50" relative="1" as="geometry">
            <mxPoint x="300" y="240" as="sourcePoint" />
            <mxPoint x="500" y="240" as="targetPoint" />
          </mxGeometry>
        </mxCell>
        <mxCell id="3iapmWC0ZGxWSZRQcOK3-41" value="" style="endArrow=none;html=1;rounded=0;" parent="1" edge="1">
          <mxGeometry width="50" height="50" relative="1" as="geometry">
            <mxPoint x="689" y="240" as="sourcePoint" />
            <mxPoint x="569" y="240" as="targetPoint" />
          </mxGeometry>
        </mxCell>
        <mxCell id="3iapmWC0ZGxWSZRQcOK3-42" value="" style="endArrow=none;html=1;rounded=0;exitX=0.5;exitY=0;exitDx=0;exitDy=0;" parent="1" source="qPho_SbqXq2HouKDJGlT-6" edge="1">
          <mxGeometry width="50" height="50" relative="1" as="geometry">
            <mxPoint x="410" y="130" as="sourcePoint" />
            <mxPoint x="130" y="240" as="targetPoint" />
          </mxGeometry>
        </mxCell>
        <mxCell id="3iapmWC0ZGxWSZRQcOK3-43" value="" style="endArrow=none;html=1;rounded=0;exitX=0.5;exitY=0;exitDx=0;exitDy=0;" parent="1" source="qPho_SbqXq2HouKDJGlT-7" edge="1">
          <mxGeometry width="50" height="50" relative="1" as="geometry">
            <mxPoint x="420" y="140" as="sourcePoint" />
            <mxPoint x="210" y="240" as="targetPoint" />
          </mxGeometry>
        </mxCell>
        <mxCell id="3iapmWC0ZGxWSZRQcOK3-44" value="" style="endArrow=none;html=1;rounded=0;entryX=0.5;entryY=1;entryDx=0;entryDy=0;" parent="1" target="qPho_SbqXq2HouKDJGlT-5" edge="1">
          <mxGeometry width="50" height="50" relative="1" as="geometry">
            <mxPoint x="170" y="240" as="sourcePoint" />
            <mxPoint x="429.5" y="120" as="targetPoint" />
          </mxGeometry>
        </mxCell>
        <mxCell id="3iapmWC0ZGxWSZRQcOK3-45" value="" style="endArrow=none;html=1;rounded=0;entryX=0.5;entryY=1;entryDx=0;entryDy=0;" parent="1" target="qPho_SbqXq2HouKDJGlT-11" edge="1">
          <mxGeometry width="50" height="50" relative="1" as="geometry">
            <mxPoint x="400" y="240" as="sourcePoint" />
            <mxPoint x="439.5" y="120" as="targetPoint" />
          </mxGeometry>
        </mxCell>
        <mxCell id="3iapmWC0ZGxWSZRQcOK3-46" value="" style="endArrow=none;html=1;rounded=0;exitX=0.5;exitY=0;exitDx=0;exitDy=0;" parent="1" source="qPho_SbqXq2HouKDJGlT-14" edge="1">
          <mxGeometry width="50" height="50" relative="1" as="geometry">
            <mxPoint x="450" y="170" as="sourcePoint" />
            <mxPoint x="299" y="240" as="targetPoint" />
          </mxGeometry>
        </mxCell>
        <mxCell id="3iapmWC0ZGxWSZRQcOK3-47" value="" style="endArrow=none;html=1;rounded=0;exitX=0.5;exitY=0;exitDx=0;exitDy=0;" parent="1" source="3iapmWC0ZGxWSZRQcOK3-1" edge="1">
          <mxGeometry width="50" height="50" relative="1" as="geometry">
            <mxPoint x="460" y="180" as="sourcePoint" />
            <mxPoint x="348" y="240" as="targetPoint" />
          </mxGeometry>
        </mxCell>
        <mxCell id="3iapmWC0ZGxWSZRQcOK3-48" value="" style="endArrow=none;html=1;rounded=0;exitX=0.5;exitY=0;exitDx=0;exitDy=0;" parent="1" edge="1">
          <mxGeometry width="50" height="50" relative="1" as="geometry">
            <mxPoint x="399.5" y="280" as="sourcePoint" />
            <mxPoint x="399.5" y="240" as="targetPoint" />
          </mxGeometry>
        </mxCell>
        <mxCell id="3iapmWC0ZGxWSZRQcOK3-49" value="" style="endArrow=none;html=1;rounded=0;exitX=0.5;exitY=0;exitDx=0;exitDy=0;" parent="1" edge="1">
          <mxGeometry width="50" height="50" relative="1" as="geometry">
            <mxPoint x="449.5" y="280" as="sourcePoint" />
            <mxPoint x="449.5" y="240" as="targetPoint" />
          </mxGeometry>
        </mxCell>
        <mxCell id="3iapmWC0ZGxWSZRQcOK3-50" value="" style="endArrow=none;html=1;rounded=0;exitX=0.5;exitY=0;exitDx=0;exitDy=0;" parent="1" edge="1">
          <mxGeometry width="50" height="50" relative="1" as="geometry">
            <mxPoint x="499.5" y="280" as="sourcePoint" />
            <mxPoint x="499.5" y="240" as="targetPoint" />
          </mxGeometry>
        </mxCell>
        <mxCell id="3iapmWC0ZGxWSZRQcOK3-51" value="" style="endArrow=none;html=1;rounded=0;exitX=0.5;exitY=0;exitDx=0;exitDy=0;" parent="1" edge="1">
          <mxGeometry width="50" height="50" relative="1" as="geometry">
            <mxPoint x="568.5" y="280" as="sourcePoint" />
            <mxPoint x="568.5" y="240" as="targetPoint" />
          </mxGeometry>
        </mxCell>
        <mxCell id="3iapmWC0ZGxWSZRQcOK3-52" value="" style="endArrow=none;html=1;rounded=0;exitX=0.5;exitY=0;exitDx=0;exitDy=0;" parent="1" edge="1">
          <mxGeometry width="50" height="50" relative="1" as="geometry">
            <mxPoint x="628.5" y="280" as="sourcePoint" />
            <mxPoint x="628.5" y="240" as="targetPoint" />
          </mxGeometry>
        </mxCell>
        <mxCell id="3iapmWC0ZGxWSZRQcOK3-53" value="" style="endArrow=none;html=1;rounded=0;exitX=0.5;exitY=0;exitDx=0;exitDy=0;" parent="1" edge="1">
          <mxGeometry width="50" height="50" relative="1" as="geometry">
            <mxPoint x="628.5" y="240" as="sourcePoint" />
            <mxPoint x="628.5" y="200" as="targetPoint" />
          </mxGeometry>
        </mxCell>
        <mxCell id="3iapmWC0ZGxWSZRQcOK3-54" value="" style="endArrow=none;html=1;rounded=0;exitX=0.5;exitY=0;exitDx=0;exitDy=0;" parent="1" edge="1">
          <mxGeometry width="50" height="50" relative="1" as="geometry">
            <mxPoint x="688.5" y="280" as="sourcePoint" />
            <mxPoint x="688.5" y="240" as="targetPoint" />
          </mxGeometry>
        </mxCell>
      </root>
    </mxGraphModel>
  </diagram>
</mxfile>
